<svg xmlns="http://www.w3.org/2000/svg" viewBox="0 0 1200 720" font-family="ui-sans-serif, system-ui, sans-serif">
  <defs>
    <linearGradient id="bg" x1="0" x2="0" y1="0" y2="1">
      <stop offset="0%" stop-color="#f8fafc"/>
      <stop offset="100%" stop-color="#eff6ff"/>
    </linearGradient>
    <filter id="shadow" x="-20%" y="-20%" width="140%" height="140%">
      <feDropShadow dx="0" dy="6" stdDeviation="12" flood-color="#0f172a" flood-opacity="0.06"/>
    </filter>
  </defs>

  <rect width="1200" height="720" fill="url(#bg)"/>

  <!-- Window chrome -->
  <rect x="40" y="40" width="1120" height="640" rx="14" fill="#ffffff" stroke="#e2e8f0" filter="url(#shadow)"/>
  <rect x="40" y="40" width="1120" height="40" rx="14" fill="#f8fafc"/>
  <circle cx="64" cy="60" r="6" fill="#f87171"/>
  <circle cx="84" cy="60" r="6" fill="#fbbf24"/>
  <circle cx="104" cy="60" r="6" fill="#34d399"/>
  <text x="600" y="64" font-size="11" fill="#94a3b8" text-anchor="middle">filenergy.app/ask</text>

  <!-- Top bar inside app -->
  <rect x="40" y="80" width="1120" height="56" fill="#ffffff" stroke="#e2e8f0"/>
  <rect x="60" y="98" width="20" height="20" rx="4" fill="#2563eb"/>
  <text x="88" y="112" font-size="14" font-weight="600" fill="#0f172a">Filenergy</text>
  <text x="220" y="112" font-size="13" fill="#0f172a" font-weight="500">Ask</text>
  <text x="280" y="112" font-size="13" fill="#64748b">Files</text>
  <text x="340" y="112" font-size="13" fill="#64748b">Collections</text>
  <text x="430" y="112" font-size="13" fill="#64748b">Connectors</text>
  <text x="540" y="112" font-size="13" fill="#64748b">Dashboard</text>
  <rect x="850" y="94" width="180" height="28" rx="6" fill="none" stroke="#e2e8f0"/>
  <text x="868" y="112" font-size="12" fill="#94a3b8">Search…</text>
  <rect x="998" y="98" width="26" height="20" rx="4" fill="#f1f5f9"/>
  <text x="1004" y="112" font-size="11" fill="#475569" font-family="monospace">⌘K</text>
  <rect x="1056" y="94" width="68" height="28" rx="999" fill="#dbeafe"/>
  <text x="1072" y="112" font-size="11" font-weight="500" fill="#1e40af">acme · pro</text>

  <!-- Sidebar -->
  <rect x="40" y="136" width="240" height="544" fill="#ffffff" stroke="#e2e8f0"/>
  <rect x="60" y="156" width="200" height="40" rx="8" fill="#2563eb"/>
  <text x="92" y="180" font-size="13" font-weight="500" fill="#ffffff">+ New conversation</text>
  <rect x="60" y="208" width="200" height="32" rx="6" fill="none" stroke="#e2e8f0"/>
  <text x="76" y="228" font-size="12" fill="#94a3b8">Filter conversations…</text>
  <text x="60" y="266" font-size="10" font-weight="600" fill="#94a3b8" letter-spacing="1">RECENT</text>
  <rect x="60" y="276" width="200" height="34" rx="6" fill="#f1f5f9"/>
  <text x="76" y="297" font-size="13" fill="#0f172a" font-weight="500">Q4 contract review</text>
  <text x="76" y="332" font-size="13" fill="#475569">Onboarding deck feedback</text>
  <text x="76" y="362" font-size="13" fill="#475569">2026 OKR drafts</text>
  <text x="76" y="392" font-size="13" fill="#475569">RFP — Acme procurement</text>
  <text x="76" y="422" font-size="13" fill="#475569">Customer interview wk 31</text>
  <text x="76" y="452" font-size="13" fill="#475569">Vendor X — termination</text>
  <text x="76" y="482" font-size="13" fill="#475569">Pricing model v3</text>

  <!-- Thread header -->
  <rect x="300" y="156" width="840" height="48" rx="10" fill="#ffffff" stroke="#e2e8f0"/>
  <text x="320" y="186" font-size="14" font-weight="500" fill="#0f172a">Q4 contract review</text>
  <text x="320" y="200" font-size="11" fill="#94a3b8">Saved · 2 messages</text>
  <rect x="1050" y="166" width="80" height="28" rx="6" fill="none" stroke="#e2e8f0"/>
  <text x="1070" y="184" font-size="12" fill="#475569">Export</text>

  <!-- Thread body -->
  <rect x="300" y="220" width="840" height="380" rx="12" fill="#ffffff" stroke="#e2e8f0"/>

  <!-- User bubble -->
  <rect x="380" y="244" width="740" height="58" rx="10" fill="#eff6ff"/>
  <text x="404" y="270" font-size="14" fill="#1e40af" font-weight="500">You</text>
  <text x="404" y="290" font-size="13" fill="#1e3a8a">Summarize the termination clauses across all our SaaS contracts.</text>

  <!-- Assistant bubble -->
  <rect x="320" y="318" width="740" height="262" rx="10" fill="#f8fafc" stroke="#e2e8f0"/>
  <text x="344" y="346" font-size="14" font-weight="500" fill="#0f172a">Assistant</text>

  <!-- Markdown-rendered body -->
  <text x="344" y="374" font-size="13" fill="#0f172a" font-weight="500">3 of 4 contracts permit termination for convenience with 30 days' notice.</text>
  <text x="344" y="396" font-size="13" fill="#334155">The Acme MSA additionally allows immediate termination on a material</text>
  <text x="344" y="416" font-size="13" fill="#334155">breach (§9.2). Notable holdouts:</text>
  <text x="364" y="438" font-size="13" fill="#334155">• Vendor-X — locks you in for 24 months, no opt-out.</text>
  <text x="364" y="458" font-size="13" fill="#334155">• OldCo — silent on termination; default common-law rules apply.</text>
  <text x="344" y="488" font-size="13" fill="#0f172a" font-weight="500">Recommendation:</text>
  <text x="344" y="510" font-size="13" fill="#334155">Add an opt-out rider before next renewal on Vendor-X.</text>

  <!-- Sources -->
  <text x="344" y="540" font-size="11" fill="#64748b">Sources:</text>
  <rect x="392" y="528" width="100" height="20" rx="4" fill="#eff6ff"/>
  <text x="402" y="542" font-size="11" fill="#1e40af">Acme MSA.pdf</text>
  <rect x="500" y="528" width="100" height="20" rx="4" fill="#eff6ff"/>
  <text x="510" y="542" font-size="11" fill="#1e40af">Vendor-X.pdf</text>
  <rect x="608" y="528" width="76" height="20" rx="4" fill="#eff6ff"/>
  <text x="618" y="542" font-size="11" fill="#1e40af">OldCo.docx</text>

  <!-- Hover actions -->
  <g transform="translate(992 552)">
    <rect width="22" height="22" rx="4" fill="#ffffff" stroke="#e2e8f0"/>
    <path d="M9 7h6v8H9z M5 11h6v8H5z" stroke="#94a3b8" stroke-width="1.4" fill="none" transform="translate(0 0)"/>
    <rect x="26" width="22" height="22" rx="4" fill="#ffffff" stroke="#e2e8f0"/>
    <path d="M30 17v-7l4 8h4l-2-9h-6z" stroke="#10b981" stroke-width="1.4" fill="none" transform="translate(2 0)"/>
    <rect x="52" width="22" height="22" rx="4" fill="#ffffff" stroke="#e2e8f0"/>
    <path d="M62 14a4 4 0 1 0-8 0 4 4 0 0 0 8 0z" stroke="#94a3b8" stroke-width="1.4" fill="none"/>
  </g>

  <!-- Composer -->
  <rect x="300" y="616" width="840" height="56" rx="10" fill="#ffffff" stroke="#e2e8f0"/>
  <text x="324" y="650" font-size="13" fill="#94a3b8">Ask anything about your library — paste an image to add vision...</text>
  <rect x="1010" y="630" width="50" height="28" rx="6" fill="none" stroke="#e2e8f0"/>
  <text x="1030" y="648" font-size="11" fill="#64748b">Stop</text>
  <rect x="1066" y="630" width="56" height="28" rx="6" fill="#2563eb"/>
  <text x="1083" y="648" font-size="13" font-weight="500" fill="#ffffff">Send</text>
</svg>
